<?xml version="1.0" encoding="UTF-8"?>
<svg width="26px" height="25px" viewBox="0 0 26 25" version="1.1" xmlns="http://www.w3.org/2000/svg" xmlns:xlink="http://www.w3.org/1999/xlink">
    <title>noun_chat_2005702</title>
    <g id="Page-1" stroke="none" stroke-width="1" fill="none" fill-rule="evenodd">
        <g id="1" transform="translate(-1126.000000, -22.000000)" fill="#222222" fill-rule="nonzero" stroke="#222222" stroke-width="0.2">
            <g id="Header" transform="translate(0.000000, -0.000000)">
                <g id="Group" transform="translate(1127.000000, 23.000000)">
                    <path d="M1.66666667,0.0937019955 C1.20241583,0.0937019955 0.766189306,0.250747586 0.460069444,0.55934069 C0.153949583,0.867936552 0,1.30165517 0,1.74930759 L0,14.4422897 C0,14.8900138 0.154095056,15.3184 0.460069444,15.6236414 C0.766043833,15.9288828 1.20071389,16.0874759 1.65798611,16.0979034 C2.03046944,16.0979034 2.40468917,16.0979034 2.77777778,16.0979034 L2.77777778,19.9609655 C2.77941667,20.1744552 2.91790944,20.3808828 3.11564972,20.4645517 C3.31339,20.5481931 3.55917083,20.5043862 3.71527778,20.3576276 L8.27256944,16.0979034 L19.4444444,16.0979034 C19.9086917,16.0979034 20.3449197,15.9322207 20.6510417,15.6236414 C20.9571636,15.3150621 21.1111111,14.889931 21.1111111,14.4422897 L21.1111111,1.74930759 C21.1111111,1.30165517 20.9658436,0.867975172 20.6597222,0.55934069 C20.3536008,0.250708966 19.908775,0.0937019955 19.4444444,0.0937019955 C13.5918381,0.0937019955 7.51927944,0.0937019955 1.66666667,0.0937019955 Z M1.66666667,1.19743995 C7.519275,1.19743995 13.5918297,1.19743995 19.4444444,1.19743995 C19.6725464,1.19743995 19.7847853,1.25845517 19.8611111,1.3354069 C19.9374369,1.41235862 20,1.53164414 20,1.74930759 L20,14.4422897 C20,14.6599724 19.9374364,14.7792552 19.8611111,14.8561931 C19.7847858,14.933131 19.6726297,14.9941517 19.4444444,14.9941517 L8.05555556,14.9941517 C7.91577972,14.9941517 7.77626139,15.0465103 7.67361111,15.1407448 L3.88888889,18.6761655 L3.88888889,15.5460138 C3.88885972,15.2570759 3.62421361,14.9941793 3.33333333,14.9941517 C2.77862444,14.9941517 2.21896167,14.9941517 1.66666667,14.9941517 C1.43991222,14.9867034 1.31648667,14.9225379 1.24131944,14.8475586 C1.16478,14.7711724 1.11111111,14.6598897 1.11111111,14.4422897 L1.11111111,1.74930759 C1.11111111,1.53164414 1.17367222,1.41235034 1.25,1.3354069 C1.32632778,1.25846345 1.43848528,1.19743995 1.66666667,1.19743995 Z M23.828125,4.22409379 C23.5580564,4.2536331 23.3317283,4.50606897 23.3333333,4.77596138 L23.3333333,17.7534897 C23.3333439,17.9717517 23.2790467,18.0746483 23.203125,18.1501517 C23.1272033,18.2256552 23.0018331,18.2966345 22.7604167,18.3053793 L20.8333333,18.3053793 C20.5424531,18.3054069 20.2778069,18.5682759 20.2777778,18.8572414 L20.2777778,21.9873655 L16.4930556,18.4519448 C16.3904053,18.3577103 16.2508869,18.3041655 16.1111111,18.3053793 L8.88888889,18.3053793 C8.5953825,18.3012414 8.32542306,18.5656552 8.32542306,18.8572414 C8.32542306,19.1488276 8.5953825,19.4132138 8.88888889,19.4091034 L15.8940972,19.4091034 L20.4513889,23.6688276 C20.6074958,23.8155862 20.8532767,23.8594207 21.0510169,23.7757517 C21.2487572,23.6920828 21.3872472,23.4856828 21.3888889,23.2721931 L21.3888889,19.4091034 L22.7777778,19.4091034 C22.7835639,19.4091862 22.7893528,19.4091862 22.7951389,19.4091034 C23.2497494,19.3925517 23.6787397,19.2387586 23.984375,18.9348414 C24.2900103,18.6309517 24.4444526,18.2 24.4444526,17.7534897 L24.4444526,4.77596138 C24.4462778,4.46575172 24.1385425,4.1901931 23.828125,4.22409379 L23.828125,4.22409379 Z" id="Shape"></path>
                </g>
            </g>
        </g>
    </g>
</svg>