<?xml version="1.0" encoding="UTF-8"?>
<svg width="518px" height="41px" viewBox="0 0 518 41" version="1.1" xmlns="http://www.w3.org/2000/svg" xmlns:xlink="http://www.w3.org/1999/xlink">
    <title>TOOLBAR</title>
    <defs>
        <path d="M13.9608,8.74253333 L11.9177333,10.4570667 C11.6215983,10.7057789 11.5831544,11.1474649 11.8318667,11.4436 C12.0805789,11.7397351 12.5222649,11.7781789 12.8184,11.5294667 L16.3538667,8.56146667 C16.4394498,8.49004954 16.5066619,8.39915322 16.5498667,8.2964 C16.7167628,8.00263509 16.6500126,7.63158238 16.3912,7.4144 L12.852,4.44453333 C12.6602675,4.28381144 12.3973552,4.23758639 12.1622997,4.32327069 C11.9272442,4.40895499 11.755756,4.61353118 11.712433,4.85993737 C11.6691101,5.10634356 11.7605341,5.35714479 11.9522667,5.51786667 L14.1278667,7.34253333 L5.80533333,7.34253333 C5.73573836,7.34253565 5.6665328,7.35291649 5.6,7.37333333 C4.09697468,7.37397681 2.74090553,8.27588903 2.15920173,9.66178449 C1.57749793,11.0476799 1.88361132,12.6472623 2.93591318,13.7204568 C3.98821503,14.7936512 5.58147103,15.1311487 6.97853333,14.5768 L6.65746667,13.1870667 C5.79264024,13.6260224 4.74645242,13.4842444 4.02964656,12.830948 C3.3128407,12.1776515 3.07488912,11.1490656 3.43195853,10.2473404 C3.78902794,9.34561521 4.66666025,8.75878347 5.6364,8.77333333 L5.62893333,8.74346667 L13.9608,8.74346667 L13.9608,8.74253333 Z" id="path-1"></path>
        <path d="M2.8392,5.0092 L4.88226667,6.72373333 C5.17840173,6.97244557 5.21684554,7.41413157 4.96813331,7.71026665 C4.71942109,8.00640172 4.27773508,8.04484555 3.9816,7.79613333 L0.446133333,4.82813333 C0.360550202,4.7567162 0.293338137,4.66581989 0.250133333,4.56306667 C0.0832371691,4.26930175 0.149987391,3.89824905 0.4088,3.68106667 L3.948,0.7112 C4.24439282,0.462745501 4.68607883,0.501607184 4.93453333,0.798 C5.18298783,1.09439282 5.14412615,1.53607883 4.84773333,1.78453333 L2.67213333,3.60826667 L10.9946667,3.60826667 C11.0643086,3.6085713 11.1335152,3.61926687 11.2,3.64 C12.7030253,3.64064347 14.0590945,4.5425557 14.6407983,5.92845115 C15.2225021,7.31434661 14.9163887,8.91392899 13.8640868,9.98712344 C12.811785,11.0603179 11.218529,11.3978153 9.82146667,10.8434667 L10.1425333,9.45373333 C11.0073241,9.89173633 12.0528552,9.74942055 12.7691117,9.09620831 C13.4853683,8.44299606 13.7231418,7.41496253 13.3664452,6.51358735 C13.0097487,5.61221217 12.132888,5.02526708 11.1636,5.03906667 L11.1710667,5.0092 L2.8392,5.0092 Z" id="path-3"></path>
        <path d="M17.4346667,0.494666667 C17.9946667,0.494666667 17.985343,0.466666667 17.985343,1.008 L17.985343,12.992 C17.985343,13.5426667 17.9946667,13.5146667 17.4346667,13.5146667 L1.204,13.5146667 C0.644,13.5146667 0.653323621,13.5426667 0.653323621,12.992 L0.653323621,1.008 C0.653323621,0.466666667 0.644,0.494666667 1.21333333,0.494666667 L17.4346667,0.494666667 Z M14.7186667,11.6666667 L14.7186667,2.33333333 L3.92,2.33333333 L3.92,11.6666667 L14.7186667,11.6666667 Z M1.86666667,1.86666667 L1.86666667,2.8 L2.8,2.8 L2.8,1.86666667 L1.86666667,1.86666667 Z M1.86666667,3.73333333 L1.86666667,4.66666667 L2.8,4.66666667 L2.8,3.73333333 L1.86666667,3.73333333 Z M1.86666667,5.6 L1.86666667,6.53333333 L2.8,6.53333333 L2.8,5.6 L1.86666667,5.6 Z M1.86666667,7.46666667 L1.86666667,8.4 L2.8,8.4 L2.8,7.46666667 L1.86666667,7.46666667 Z M1.86666667,9.33333333 L1.86666667,10.2666667 L2.8,10.2666667 L2.8,9.33333333 L1.86666667,9.33333333 Z M1.86666667,11.2 L1.86666667,12.1333333 L2.8,12.1333333 L2.8,11.2 L1.86666667,11.2 Z M15.8666667,1.86666667 L15.8666667,2.8 L16.8,2.8 L16.8,1.86666667 L15.8666667,1.86666667 Z M15.8666667,3.73333333 L15.8666667,4.66666667 L16.8,4.66666667 L16.8,3.73333333 L15.8666667,3.73333333 Z M15.8666667,5.6 L15.8666667,6.53333333 L16.8,6.53333333 L16.8,5.6 L15.8666667,5.6 Z M15.8666667,7.46666667 L15.8666667,8.4 L16.8,8.4 L16.8,7.46666667 L15.8666667,7.46666667 Z M15.8666667,9.33333333 L15.8666667,10.2666667 L16.8,10.2666667 L16.8,9.33333333 L15.8666667,9.33333333 Z M15.8666667,11.2 L15.8666667,12.1333333 L16.8,12.1333333 L16.8,11.2 L15.8666667,11.2 Z M6.99999952,4.3652 C6.99978794,4.23305307 7.06945073,4.1106397 7.18317001,4.04332863 C7.29688929,3.97601755 7.43771965,3.97383885 7.55346667,4.0376 L12.3442667,6.67333333 C12.4631046,6.73908437 12.5368608,6.86418525 12.5368608,7 C12.5368608,7.13581475 12.4631046,7.26091563 12.3442667,7.32666667 L7.55346667,9.9624 C7.43786551,10.0260806 7.29723183,10.0239928 7.18357199,9.95690859 C7.06991216,9.88982437 7.00011822,9.76771378 6.99999952,9.63573333 L6.99999952,4.36426667 L6.99999952,4.3652 Z" id="path-5"></path>
        <path d="M0.941,1.523 C0.740346822,1.33602942 0.657750818,1.05444446 0.725614458,0.788711091 C0.793478098,0.522977725 1.00097772,0.315478098 1.26671109,0.247614458 C1.53244446,0.179750818 1.81402942,0.262346822 2.001,0.463 L5.007,3.468 L8.012,0.463 C8.19897058,0.262346822 8.48055554,0.179750818 8.74628891,0.247614458 C9.01202228,0.315478098 9.2195219,0.522977725 9.28738554,0.788711091 C9.35524918,1.05444446 9.27265318,1.33602942 9.072,1.523 L5.523,5.073 C5.36092448,5.2349628 5.13370378,5.31395282 4.90611171,5.28745237 C4.67851964,5.26095193 4.47552667,5.13186854 4.355,4.937 L0.941,1.523 Z" id="path-7"></path>
        <path d="M1.58694322,3.56529618 L1.58694322,6.36529618 L5.32027655,6.36529618 L5.32027655,3.56529618 L1.58694322,3.56529618 Z M1.58694322,7.29862952 L1.58694322,10.0986295 L5.32027655,10.0986295 L5.32027655,7.29862952 L1.58694322,7.29862952 Z M1.58694322,11.0319628 L1.58694322,13.8319628 L5.32027655,13.8319628 L5.32027655,11.0319628 L1.58694322,11.0319628 Z M6.25360988,13.8319628 L9.98694322,13.8319628 L9.98694322,11.0319628 L6.25360988,11.0319628 L6.25360988,13.8319628 Z M10.9202766,13.8319628 L14.6536099,13.8319628 L14.6536099,11.0319628 L10.9202766,11.0319628 L10.9202766,13.8319628 Z M14.6536099,10.0986295 L14.6536099,7.29862952 L10.9202766,7.29862952 L10.9202766,10.0986295 L14.6536099,10.0986295 Z M14.6536099,6.36529618 L14.6536099,3.56529618 L10.9202766,3.56529618 L10.9202766,6.36529618 L14.6536099,6.36529618 Z M16.0536099,13.8319628 C16.0536099,14.6051615 15.4268085,15.2319628 14.6536099,15.2319628 L1.58694322,15.2319628 C0.813744568,15.2319628 0.186943217,14.6051615 0.186943217,13.8319628 L0.186943217,1.69862952 C0.394143217,0.893162849 1.18374322,0.298629515 2.05360988,0.298629515 L14.1869432,0.298629515 C15.0568099,0.298629515 15.8464099,0.893162849 16.0536099,1.69862952 L16.0536099,13.8319628 Z M9.98694322,10.0986295 L9.98694322,7.29862952 L6.25360988,7.29862952 L6.25360988,10.0986295 L9.98694322,10.0986295 Z M9.98694322,6.36529618 L9.98694322,3.56529618 L6.25360988,3.56529618 L6.25360988,6.36529618 L9.98694322,6.36529618 Z" id="path-9"></path>
        <path d="M0.941,1.523 C0.740346822,1.33602942 0.657750818,1.05444446 0.725614458,0.788711091 C0.793478098,0.522977725 1.00097772,0.315478098 1.26671109,0.247614458 C1.53244446,0.179750818 1.81402942,0.262346822 2.001,0.463 L5.007,3.468 L8.012,0.463 C8.19897058,0.262346822 8.48055554,0.179750818 8.74628891,0.247614458 C9.01202228,0.315478098 9.2195219,0.522977725 9.28738554,0.788711091 C9.35524918,1.05444446 9.27265318,1.33602942 9.072,1.523 L5.523,5.073 C5.36092448,5.2349628 5.13370378,5.31395282 4.90611171,5.28745237 C4.67851964,5.26095193 4.47552667,5.13186854 4.355,4.937 L0.941,1.523 Z" id="path-11"></path>
        <path d="M0.542701379,6.5649953 C0.580088555,3.40295684 3.04007953,0.799980926 6.19496805,0.584195299 L6.23043471,1.20952863 C3.76083471,1.89832863 2.73976805,3.9889953 2.61470138,6.1701953 L6.14270138,6.1701953 C6.65790138,6.1701953 6.60936805,6.5733953 6.60936805,7.09046197 L6.60936805,11.3007286 C6.60936805,11.8177953 6.19123471,11.7701953 5.67603471,11.7701953 L1.00936805,11.7701953 C0.494168046,11.7701953 0.542701379,11.3511286 0.542701379,10.834062 L0.542701379,7.09046197 L0.542701379,6.5649953 Z M8.00936805,6.5649953 C8.04675522,3.40295684 10.5067462,0.799980926 13.6616347,0.584195299 L13.6971014,1.20952863 C11.2275014,1.89926197 10.2064347,3.98992863 10.0823014,6.1701953 L13.609368,6.1701953 C14.124568,6.1701953 14.0760347,6.5733953 14.0760347,7.09046197 L14.0760347,11.3007286 C14.0760347,11.8177953 13.6579014,11.7701953 13.1427014,11.7701953 L8.47603471,11.7701953 C7.96083471,11.7701953 8.00936805,11.3511286 8.00936805,10.834062 L8.00936805,7.09046197 L8.00936805,6.5649953 Z" id="path-13"></path>
        <path d="M4.86266667,7.00933333 C5.10533333,6.79466667 5.46,6.81333333 5.684,7.03733333 L8.82,9.968 L10.9013333,8.04533333 C11.1303893,7.83308233 11.4842773,7.83308233 11.7133333,8.04533333 L14.0653333,10.8173333 L14.0653333,1.372 L1.4,1.372 L1.4,10.8173333 L4.86266667,7.00933333 Z M14.448,0 C15.008,0 15.4653333,0.438666667 15.4653333,0.98 L15.4653333,12.0306667 C15.4653333,12.5813333 15.008,13.02 14.448,13.02 L1.01733333,13.02 C0.457333333,13.02 0,12.5813333 0,12.0306667 L0,0.98 C0,0.438666667 0.457333333,0 1.02666667,0 L14.448,0 Z M9.576,5.18933333 C9.24922106,4.62247193 9.24968183,3.9243359 9.57720874,3.35790634 C9.90473565,2.79147677 10.5095696,2.4428078 11.1638754,2.44323926 C11.8181813,2.44367151 12.4225544,2.79313858 12.7493333,3.36 C13.2544898,4.2362918 12.9536251,5.35617686 12.0773333,5.86133331 C11.2010415,6.36648976 10.0811565,6.06562512 9.576,5.18933333 L9.576,5.18933333 Z" id="path-15"></path>
        <path d="M6.53333333,3.5 C6.53333333,3.8864 6.84693333,4.2 7.23333333,4.2 L16.1,4.2 C16.4865993,4.2 16.8,3.88659932 16.8,3.5 C16.8,3.11340068 16.4865993,2.8 16.1,2.8 L7.23333333,2.8 C6.84673401,2.8 6.53333333,3.11340068 6.53333333,3.5 Z M3.26666667,0.933333333 L3.26666667,5.6 L1.86666667,5.6 L1.86666667,1.58666667 L0.933333333,1.58666667 L0.933333333,0.653333333 L3.26666667,0.653333333 L3.26666667,0.933333333 Z M0.320133333,14.7998667 L2.73746667,11.76 L2.72533333,11.76 C2.86082299,11.5246276 2.80789716,11.2259655 2.59977743,11.051484 C2.3916577,10.8770026 2.0883423,10.8770026 1.88022257,11.051484 C1.67210284,11.2259655 1.61917701,11.5246276 1.75466667,11.76 L0.281866667,11.76 C0.247418526,11.0716833 0.595032298,10.4203854 1.18605175,10.0658961 C1.7770712,9.71140686 2.5153288,9.71140686 3.10634825,10.0658961 C3.6973677,10.4203854 4.04498147,11.0716833 4.01053333,11.76 L4.0096,11.76 C3.9648,12.138 3.86026667,12.4450667 3.6988,12.6821333 C3.53546667,12.9192 3.14813333,13.328 2.53773333,13.9066667 L4.01333333,13.9066667 L4.01333333,14.84 L0.28,14.84 L0.320133333,14.7998667 Z M6.53333333,11.9 C6.53333333,11.5134007 6.84673401,11.2 7.23333333,11.2 L16.1,11.2 C16.4865993,11.2 16.8,11.5134007 16.8,11.9 C16.8,12.2865993 16.4865993,12.6 16.1,12.6 L7.23333333,12.6 C6.84673401,12.6 6.53333333,12.2865993 6.53333333,11.9 L6.53333333,11.9 Z" id="path-17"></path>
        <path d="M6.06666667,2.1 C6.06666667,2.4864 6.38026667,2.8 6.76666667,2.8 L15.6333333,2.8 C16.0199327,2.8 16.3333333,2.48659932 16.3333333,2.1 C16.3333333,1.71340068 16.0199327,1.4 15.6333333,1.4 L6.76666667,1.4 C6.38006734,1.4 6.06666667,1.71340068 6.06666667,2.1 Z M0.466666667,2.1 C0.466666667,1.1984 1.19186667,0.466666667 2.1,0.466666667 C3.0016,0.466666667 3.73333333,1.19186667 3.73333333,2.1 C3.73333333,3.0016 3.00813333,3.73333333 2.1,3.73333333 C1.1984,3.73333333 0.466666667,3.00813333 0.466666667,2.1 Z M6.06666667,10.5 C6.06666667,10.8864 6.38026667,11.2 6.76666667,11.2 L15.6333333,11.2 C16.0199327,11.2 16.3333333,10.8865993 16.3333333,10.5 C16.3333333,10.1134007 16.0199327,9.8 15.6333333,9.8 L6.76666667,9.8 C6.38006734,9.8 6.06666667,10.1134007 6.06666667,10.5 L6.06666667,10.5 Z M0.466666667,10.5 C0.466666667,9.5984 1.19186667,8.86666667 2.1,8.86666667 C3.0016,8.86666667 3.73333333,9.59186667 3.73333333,10.5 C3.73333333,11.4016 3.00813333,12.1333333 2.1,12.1333333 C1.1984,12.1333333 0.466666667,11.4081333 0.466666667,10.5 Z" id="path-19"></path>
        <path d="M8.47186667,12.1333333 L9.3968,10.8117333 C9.54018259,10.6068296 9.7819884,10.4939845 10.0311315,10.5157056 C10.2802747,10.5374267 10.4989043,10.6904141 10.6046649,10.9170389 C10.7104254,11.1436637 10.6872493,11.4094963 10.5438667,11.6144 L9.4724,13.1450667 C9.41852679,13.2221418 9.34963769,13.2875389 9.26986667,13.3373333 C7.59738195,15.0865902 4.89844474,15.3531299 2.91610188,13.9648138 C0.933759024,12.5764977 0.261604247,9.94904391 1.33373333,7.77933333 C1.3524,7.69066667 1.38973333,7.60293333 1.44573333,7.5236 L2.51626667,5.99386667 C2.65592731,5.77984581 2.90112176,5.65894341 3.15593413,5.67845441 C3.4107465,5.69796541 3.63467547,5.85478864 3.74012386,6.08757751 C3.84557225,6.32036639 3.81577949,6.59212014 3.6624,6.79653333 L2.73746667,8.12 L2.74306667,8.1228 C1.77654401,9.70015315 2.20442609,11.7572688 3.71975494,12.8183944 C5.23508378,13.8795199 7.31450605,13.5781716 8.46626667,12.1305333 L8.47186667,12.1342667 L8.47186667,12.1333333 Z M13.5996,7.154 C13.579866,7.2459159 13.541771,7.33289932 13.4876,7.40973333 L12.4170667,8.93946667 C12.277406,9.15348752 12.0322116,9.27438993 11.7773992,9.25487892 C11.5225868,9.23536792 11.2986579,9.0785447 11.1932095,8.84575582 C11.0877611,8.61296695 11.1175538,8.3412132 11.2709333,8.1368 L12.0736,6.9888 C13.165877,5.40539773 12.7756196,3.23727304 11.1997703,2.13412723 C9.623921,1.03098142 7.45316244,1.4063116 6.3392,2.97453333 L5.53653333,4.1216 C5.31488305,4.4383537 4.87842039,4.51545026 4.56166668,4.29379998 C4.24491297,4.07214971 4.1678164,3.63568705 4.38946667,3.31893333 L5.46093333,1.78826667 C5.51480654,1.71119149 5.58369564,1.64579447 5.66346667,1.596 C7.33595139,-0.153256878 10.0348886,-0.419796545 12.0172315,0.968519545 C13.9995743,2.35683563 14.6717291,4.98428942 13.5996,7.154 L13.5996,7.154 Z M9.3408,4.7908 C9.49297048,4.89731721 9.59656656,5.05994739 9.62877668,5.24287983 C9.66098679,5.42581228 9.61916967,5.61404631 9.51253333,5.76613333 L6.56786667,9.9708 C6.42448408,10.1757037 6.18267826,10.2885489 5.93353514,10.2668278 C5.68439201,10.2451067 5.46576234,10.0921193 5.3600018,9.86549444 C5.25424127,9.63886961 5.27741741,9.37303706 5.4208,9.16813333 L8.36546667,4.96253333 C8.47198387,4.81036285 8.63461405,4.70676677 8.8175465,4.67455666 C9.00047894,4.64234654 9.18871298,4.68416366 9.3408,4.7908 L9.3408,4.7908 Z" id="path-21"></path>
        <path d="M5.2136,10.8574667 L5.2332,10.8612 C5.1996,11.1738667 5.32186667,11.4725333 5.6,11.7590667 C5.67653333,11.8365333 5.76146667,11.8990667 5.85573333,11.9466667 L7.23146667,11.9466667 C7.54074613,11.9466667 7.79146667,12.1973872 7.79146667,12.5066667 C7.79146667,12.8159461 7.54074613,13.0666667 7.23146667,13.0666667 L1.21706667,13.0666667 C0.907787207,13.0666667 0.657066667,12.8159461 0.657066667,12.5066667 C0.657066667,12.1973872 0.907787207,11.9466667 1.21706667,11.9466667 L2.2904,11.9466667 C2.7328,11.8813333 3.04546667,11.7768 3.2284,11.6349333 C3.37493333,11.5210667 3.5,11.3362667 3.60546667,11.0777333 L5.8604,2.1644 C5.88772963,1.88252794 5.79214136,1.60256657 5.59813333,1.39626667 C5.48480449,1.27238389 5.34330238,1.17762229 5.1856,1.12 L3.87333333,1.12 C3.56405387,1.12 3.31333333,0.86927946 3.31333333,0.56 C3.31333333,0.25072054 3.56405387,0 3.87333333,0 L9.8868,0 C10.1960795,0 10.4468,0.25072054 10.4468,0.56 C10.4468,0.86927946 10.1960795,1.12 9.8868,1.12 L8.77146667,1.12 C8.42053333,1.17226667 8.1648,1.26466667 8.00333333,1.39626667 C7.80266667,1.5596 7.60853333,1.806 7.42186667,2.1336 L5.2136,10.8574667 Z" id="path-23"></path>
        <path d="M5.77453333,13.0662 L1.6548,13.0662 C1.06026667,13.0662 0.6356,12.9374 0.381733333,12.6788667 C0.126933333,12.4203333 0,12.0087333 0,11.4440667 L0,1.62166667 C0,1.0458 0.130666667,0.630466667 0.391066667,0.378466667 C0.651466667,0.126466667 1.0724,-0.000466666667 1.6548,-0.000466666667 L6.0228,-0.000466666667 C6.6668,-0.000466666667 7.22493333,0.0378 7.69626667,0.115266667 C8.16853333,0.192733333 8.59226667,0.341133333 8.9656,0.5614 C9.28386667,0.745266667 9.56666667,0.9786 9.8112,1.2614 C10.3000889,1.81964203 10.5682667,2.53721688 10.5653333,3.27926667 C10.5653333,4.58686667 9.89146667,5.54353333 8.5428,6.14926667 C10.3133333,6.6962 11.2,7.7602 11.2,9.3422 C11.2164081,10.7664458 10.3694361,12.0590372 9.05706667,12.6126 C8.60215413,12.7901238 8.12629254,12.9083834 7.6412,12.9644667 C7.10826667,13.0326 6.48573333,13.0671333 5.77453333,13.0671333 L5.77453333,13.0662 Z M5.572,7.26366667 L2.8,7.26366667 L2.8,11.0782 L5.6644,11.0782 C7.5096,11.0782 8.43173333,10.4342 8.43173333,9.14433333 C8.43173333,8.48446667 8.1928,8.00566667 7.71493333,7.7098 C7.23706667,7.41206667 6.52306667,7.26366667 5.572,7.26366667 L5.572,7.26366667 Z M2.8,1.98753333 L2.8,5.36526667 L5.23226667,5.36526667 C5.91266667,5.36526667 6.43813333,5.30273333 6.8096,5.1786 C7.17390486,5.05851539 7.47803061,4.80284924 7.65893333,4.4646 C7.81293333,4.2154 7.88946667,3.93633333 7.88946667,3.6274 C7.88946667,2.96753333 7.6468,2.5298 7.16333333,2.31233333 C6.67893333,2.0958 5.94066667,1.98753333 4.94666667,1.98753333 L2.8,1.98753333 L2.8,1.98753333 Z" id="path-25"></path>
        <path d="M0.941,1.484925 C0.740346822,1.30262868 0.657750818,1.02808335 0.725614458,0.768993314 C0.793478098,0.509903282 1.00097772,0.307591145 1.26671109,0.241424097 C1.53244446,0.175257048 1.81402942,0.255788152 2.001,0.451425 L5.007,3.3813 L8.012,0.451425 C8.19897058,0.255788152 8.48055554,0.175257048 8.74628891,0.241424097 C9.01202228,0.307591145 9.2195219,0.509903282 9.28738554,0.768993314 C9.35524918,1.02808335 9.27265318,1.30262868 9.072,1.484925 L5.523,4.946175 C5.36092448,5.10408873 5.13370378,5.181104 4.90611171,5.15526606 C4.67851964,5.12942813 4.47552667,5.00357182 4.355,4.813575 L0.941,1.484925 Z" id="path-27"></path>
    </defs>
    <g id="Page-1" stroke="none" stroke-width="1" fill="none" fill-rule="evenodd">
        <g id="1" transform="translate(-801.000000, -107.000000)">
            <g id="TOOLBAR" transform="translate(801.000000, 108.000000)">
                <path d="M513.5,0.5 C514.466498,0.5 515.341498,0.891750844 515.974874,1.52512627 C516.608249,2.15850169 517,3.03350169 517,4 L517,4 L517,39.5 L0.5,39.5 L0.5,4 C0.5,3.03350169 0.891750844,2.15850169 1.52512627,1.52512627 C2.15850169,0.891750844 3.03350169,0.5 4,0.5 L4,0.5 L513.5,0.5 Z" id="Rectangle" stroke="#C4C4C4" fill="#FAFAFA" fill-rule="nonzero"></path>
                <g id="button-redo" opacity="0.5" transform="translate(483.000000, 6.000000)">
                    <rect id="bg" x="0" y="0" width="28" height="28" rx="2"></rect>
                    <g id="redo" transform="translate(4.666667, 4.666667)">
                        <g id="color"></g>
                        <mask id="mask-2" fill="white">
                            <use xlink:href="#path-1"></use>
                        </mask>
                        <use id="icon" fill="#000000" xlink:href="#path-1"></use>
                        <g id="Group" mask="url(#mask-2)" fill="#333333">
                            <g id="color">
                                <rect x="0" y="0" width="18.6666667" height="18.6666667"></rect>
                            </g>
                        </g>
                    </g>
                </g>
                <g id="button-undo" opacity="0.5" transform="translate(452.000000, 6.000000)">
                    <rect id="bg" x="0" y="0" width="28" height="28" rx="2"></rect>
                    <g id="Group" transform="translate(4.666667, 4.666667)">
                        <g id="undo" transform="translate(1.866667, 3.733333)">
                            <mask id="mask-4" fill="white">
                                <use xlink:href="#path-3"></use>
                            </mask>
                            <use id="icon" fill="#000000" xlink:href="#path-3"></use>
                            <g id="Group" mask="url(#mask-4)">
                                <g transform="translate(-1.866667, -3.733333)" id="color">
                                    <rect fill="#333333" x="0" y="0" width="18.6666667" height="18.6666667"></rect>
                                </g>
                            </g>
                        </g>
                    </g>
                </g>
                <g id="button-media-embed" transform="translate(407.000000, 6.000000)">
                    <rect id="bg" x="0" y="0" width="28" height="28" rx="2"></rect>
                    <g id="Group" transform="translate(4.666667, 4.666667)">
                        <g id="media" transform="translate(0.000000, 2.333333)">
                            <mask id="mask-6" fill="white">
                                <use xlink:href="#path-5"></use>
                            </mask>
                            <use id="icon" fill="#000000" fill-rule="nonzero" xlink:href="#path-5"></use>
                            <g id="Group" mask="url(#mask-6)">
                                <g transform="translate(0.000000, -2.333333)" id="color">
                                    <rect fill="#333333" x="0" y="0" width="18.6666667" height="18.6666667"></rect>
                                </g>
                            </g>
                        </g>
                    </g>
                    <g id="Group" transform="translate(24.500000, 4.666667)">
                        <g id="dropdown-arrow" transform="translate(3.000000, 7.000000)">
                            <mask id="mask-8" fill="white">
                                <use xlink:href="#path-7"></use>
                            </mask>
                            <use id="Mask" fill="#333333" xlink:href="#path-7"></use>
                            <g id="Group" mask="url(#mask-8)">
                                <g transform="translate(-5.000000, -7.000000)" id="color">
                                    <rect fill="#333333" x="0" y="0" width="20" height="20"></rect>
                                </g>
                            </g>
                        </g>
                    </g>
                </g>
                <g id="button-table" transform="translate(364.000000, 6.000000)">
                    <rect id="bg" x="0" y="0" width="28" height="28" rx="2"></rect>
                    <g id="Group" transform="translate(4.666667, 4.666667)">
                        <g id="table" transform="translate(0.933333, 1.400000)">
                            <mask id="mask-10" fill="white">
                                <use xlink:href="#path-9"></use>
                            </mask>
                            <use id="icon" fill="#000000" xlink:href="#path-9"></use>
                            <g id="Group" mask="url(#mask-10)">
                                <g transform="translate(-0.933333, -1.400000)" id="color">
                                    <rect fill="#333333" x="0" y="0" width="18.6666667" height="18.6666667"></rect>
                                </g>
                            </g>
                        </g>
                    </g>
                    <g id="Group" transform="translate(23.333333, 4.666667)">
                        <g id="dropdown-arrow" transform="translate(3.000000, 7.000000)">
                            <mask id="mask-12" fill="white">
                                <use xlink:href="#path-11"></use>
                            </mask>
                            <use id="Mask" fill="#333333" xlink:href="#path-11"></use>
                            <g id="Group" mask="url(#mask-12)">
                                <g transform="translate(-5.000000, -7.000000)" id="color">
                                    <rect fill="#333333" x="0" y="0" width="20" height="20"></rect>
                                </g>
                            </g>
                        </g>
                    </g>
                </g>
                <g id="button-quote" transform="translate(333.000000, 6.000000)">
                    <rect id="bg" x="0" y="0" width="28" height="28" rx="2"></rect>
                    <g id="Group" transform="translate(4.666667, 4.666667)">
                        <g id="quote" transform="translate(1.866667, 3.266667)">
                            <mask id="mask-14" fill="white">
                                <use xlink:href="#path-13"></use>
                            </mask>
                            <use id="icon" fill="#000000" xlink:href="#path-13"></use>
                            <g id="Group" mask="url(#mask-14)">
                                <g transform="translate(-1.866667, -3.266667)" id="color">
                                    <rect fill="#333333" x="0" y="0" width="18.6666667" height="18.6666667"></rect>
                                </g>
                            </g>
                        </g>
                    </g>
                </g>
                <g id="button-image" transform="translate(302.000000, 6.000000)">
                    <rect id="bg" x="0" y="0" width="28" height="28" rx="2"></rect>
                    <g id="Group" transform="translate(4.666667, 4.666667)">
                        <g id="image" transform="translate(1.400000, 2.800000)">
                            <mask id="mask-16" fill="white">
                                <use xlink:href="#path-15"></use>
                            </mask>
                            <use id="icon" fill="#000000" fill-rule="nonzero" xlink:href="#path-15"></use>
                            <g id="Group" mask="url(#mask-16)">
                                <g transform="translate(-1.400000, -2.800000)" id="color">
                                    <rect fill="#333333" x="0" y="0" width="18.6666667" height="18.6666667"></rect>
                                </g>
                            </g>
                        </g>
                    </g>
                </g>
                <g id="button-list-number" transform="translate(271.000000, 6.000000)">
                    <rect id="bg" x="0" y="0" width="28" height="28" rx="2"></rect>
                    <g id="Group" transform="translate(4.666667, 4.666667)">
                        <g id="list-number" transform="translate(0.933333, 1.866667)">
                            <mask id="mask-18" fill="white">
                                <use xlink:href="#path-17"></use>
                            </mask>
                            <use id="icon" fill="#000000" xlink:href="#path-17"></use>
                            <g id="Group" mask="url(#mask-18)">
                                <g transform="translate(-0.933333, -1.866667)" id="color">
                                    <rect fill="#333333" x="0" y="0" width="18.6666667" height="18.6666667"></rect>
                                </g>
                            </g>
                        </g>
                    </g>
                </g>
                <g id="button-list-bullet" transform="translate(240.000000, 6.000000)">
                    <rect id="bg" x="0" y="0" width="28" height="28" rx="2"></rect>
                    <g id="Group" transform="translate(4.666667, 4.666667)">
                        <g id="list-bullet" transform="translate(0.933333, 2.800000)">
                            <mask id="mask-20" fill="white">
                                <use xlink:href="#path-19"></use>
                            </mask>
                            <use id="icon" fill="#000000" xlink:href="#path-19"></use>
                            <g id="Group" mask="url(#mask-20)">
                                <g transform="translate(-0.933333, -2.800000)" id="color">
                                    <rect fill="#333333" x="0" y="0" width="18.6666667" height="18.6666667"></rect>
                                </g>
                            </g>
                        </g>
                    </g>
                </g>
                <g id="button-link" transform="translate(209.000000, 6.000000)">
                    <rect id="bg" x="0" y="0" width="28" height="28" rx="2"></rect>
                    <g id="Group" transform="translate(4.666667, 4.666667)">
                        <g id="link" transform="translate(1.866667, 1.866667)">
                            <mask id="mask-22" fill="white">
                                <use xlink:href="#path-21"></use>
                            </mask>
                            <use id="icon" fill="#000000" xlink:href="#path-21"></use>
                            <g id="Group" mask="url(#mask-22)">
                                <g transform="translate(-1.866667, -1.866667)" id="color">
                                    <rect fill="#333333" x="0" y="0" width="18.6666667" height="18.6666667"></rect>
                                </g>
                            </g>
                        </g>
                    </g>
                </g>
                <g id="button-italic" transform="translate(178.000000, 6.000000)">
                    <rect id="bg" x="0" y="0" width="28" height="28" rx="2"></rect>
                    <g id="Group" transform="translate(4.666667, 4.666667)">
                        <g id="italic" transform="translate(3.733333, 2.800000)">
                            <mask id="mask-24" fill="white">
                                <use xlink:href="#path-23"></use>
                            </mask>
                            <use id="icon" fill="#333333" xlink:href="#path-23"></use>
                            <g id="Group" mask="url(#mask-24)">
                                <g transform="translate(-3.733333, -2.800000)" id="color">
                                    <rect fill="#333333" x="0" y="0" width="18.6666667" height="18.6666667"></rect>
                                </g>
                            </g>
                        </g>
                    </g>
                </g>
                <g id="button-bold" transform="translate(147.000000, 6.000000)">
                    <rect id="bg" fill="#DEDEDE" x="0" y="0" width="28" height="28" rx="2"></rect>
                    <g id="Group" transform="translate(4.666667, 4.666667)">
                        <g id="bold" transform="translate(3.733333, 2.800000)">
                            <mask id="mask-26" fill="white">
                                <use xlink:href="#path-25"></use>
                            </mask>
                            <use id="icon" fill="#000000" xlink:href="#path-25"></use>
                            <g id="Group" mask="url(#mask-26)">
                                <g transform="translate(-3.733333, -2.800000)" id="color">
                                    <rect fill="#333333" x="0" y="0" width="18.6666667" height="18.6666667"></rect>
                                </g>
                            </g>
                        </g>
                    </g>
                </g>
                <g id="Group" transform="translate(4.083969, 0.000000)">
                    <g id="dropdown" transform="translate(13.000000, -0.975000)">
                        <path d="M0.754636775,15.8437518 L5.27319146,15.8437518 C6.16642509,15.8437518 6.88646998,16.0892449 7.43334771,16.5802386 C7.98022545,17.0712322 8.25366021,17.7610569 8.25366021,18.6497332 C8.25366021,19.4139948 8.00984755,20.0793813 7.5222149,20.6459124 C7.03458225,21.2124436 6.28491527,21.4957049 5.27319146,21.4957049 L2.11498834,21.4957049 L2.11498834,25.6346941 L0.754636775,25.6346941 L0.754636775,15.8437518 Z M6.87963677,18.6563983 C6.87963677,17.9365704 6.60620201,17.4478058 6.05932427,17.1900897 C5.75854152,17.0523448 5.34611075,16.9834734 4.82201959,16.9834734 L2.11498834,16.9834734 L2.11498834,20.3759783 L4.82201959,20.3759783 C5.43269972,20.3759783 5.92830024,20.2493439 6.30883599,19.9960711 C6.68937175,19.7427984 6.87963677,19.2962452 6.87963677,18.6563983 Z M10.7419415,23.735158 C10.7419415,24.0817418 10.871823,24.3550056 11.1315899,24.5549578 C11.3913568,24.75491 11.6989709,24.8548846 12.0544415,24.8548846 C12.4873863,24.8548846 12.906653,24.7571317 13.312254,24.5616229 C13.9958511,24.237256 14.3376446,23.7062799 14.3376446,22.9686785 L14.3376446,22.0022479 C14.1872532,22.0955589 13.9935703,22.1733169 13.7565899,22.2355242 C13.5196095,22.2977316 13.28719,22.3421647 13.0593243,22.368825 L12.3142071,22.4621356 C11.8675903,22.5198995 11.5326327,22.6109875 11.3093243,22.7354022 C10.9310672,22.9442411 10.7419415,23.2774897 10.7419415,23.735158 Z M13.7224102,21.3090838 C14.0049637,21.2735367 14.1940894,21.1580106 14.289793,20.9625018 C14.3444808,20.8558606 14.3718243,20.7025662 14.3718243,20.5026141 C14.3718243,20.093823 14.2225745,19.7972317 13.9240704,19.6128314 C13.6255663,19.428431 13.1983245,19.3362322 12.6423321,19.3362322 C11.9997507,19.3362322 11.5440261,19.5050782 11.2751446,19.8427752 C11.1247532,20.0293972 11.0267724,20.3071044 10.9811993,20.6759051 L9.83276177,20.6759051 C9.85554835,19.7961155 10.1483514,19.1840489 10.7111797,18.8396868 C11.2740081,18.4953248 11.9268336,18.3231463 12.6696758,18.3231463 C13.5310083,18.3231463 14.2305455,18.4831056 14.7683086,18.8030291 C15.3015144,19.1229526 15.5681133,19.6206039 15.5681133,20.2959979 L15.5681133,24.408327 C15.5681133,24.5327416 15.5943175,24.6327162 15.6467266,24.7082537 C15.6991357,24.7837912 15.809649,24.8215594 15.9782696,24.8215594 C16.0329574,24.8215594 16.0944802,24.8182269 16.1628399,24.8115618 C16.2311996,24.8048968 16.3041156,24.7948993 16.3815899,24.7815691 L16.3815899,25.6680193 C16.1901827,25.7213399 16.0443508,25.7546648 15.9440899,25.7679949 C15.843829,25.7813251 15.7071116,25.78799 15.5339336,25.78799 C15.1101034,25.78799 14.8024893,25.6413607 14.6110821,25.3480975 C14.5108212,25.1925791 14.4401839,24.972635 14.399168,24.6882586 C14.1485157,25.0081821 13.7884933,25.2858893 13.3190899,25.5213885 C12.8496865,25.7568877 12.3324391,25.8746356 11.7673321,25.8746356 C11.0882922,25.8746356 10.5334475,25.6735756 10.1027813,25.2714495 C9.67211509,24.8693235 9.45678521,24.3661181 9.45678521,23.7618182 C9.45678521,23.0997543 9.66869716,22.5865514 10.0925274,22.2221941 C10.5163576,21.8578369 11.0723417,21.6334495 11.7604961,21.5490252 L13.7224102,21.3090838 Z M17.6188946,18.4964373 L18.7878399,18.4964373 L18.7878399,19.7294695 C18.8835435,19.4895269 19.1182417,19.197379 19.4919415,18.8530169 C19.8656412,18.5086548 20.296301,18.3364764 20.7839336,18.3364764 C20.8067202,18.3364764 20.8454568,18.338698 20.9001446,18.3431414 C20.9548324,18.3475848 21.0482559,18.3564714 21.180418,18.3698016 L21.180418,19.636159 C21.107501,19.6228288 21.0402816,19.6139422 20.9787579,19.6094988 C20.9172341,19.6050555 20.8500147,19.6028338 20.7770977,19.6028338 C20.1573029,19.6028338 19.6810707,19.7972288 19.3483868,20.1860247 C19.0157028,20.5748206 18.8493633,21.0224846 18.8493633,21.5290301 L18.8493633,25.6346941 L17.6188946,25.6346941 L17.6188946,18.4964373 Z M23.1901836,23.735158 C23.1901836,24.0817418 23.3200652,24.3550056 23.5798321,24.5549578 C23.839599,24.75491 24.1472131,24.8548846 24.5026836,24.8548846 C24.9356285,24.8548846 25.3548952,24.7571317 25.7604961,24.5616229 C26.4440933,24.237256 26.7858868,23.7062799 26.7858868,22.9686785 L26.7858868,22.0022479 C26.6354954,22.0955589 26.4418124,22.1733169 26.2048321,22.2355242 C25.9678517,22.2977316 25.7354322,22.3421647 25.5075665,22.368825 L24.7624493,22.4621356 C24.3158325,22.5198995 23.9808749,22.6109875 23.7575665,22.7354022 C23.3793094,22.9442411 23.1901836,23.2774897 23.1901836,23.735158 Z M26.1706524,21.3090838 C26.4532059,21.2735367 26.6423316,21.1580106 26.7380352,20.9625018 C26.792723,20.8558606 26.8200665,20.7025662 26.8200665,20.5026141 C26.8200665,20.093823 26.6708167,19.7972317 26.3723126,19.6128314 C26.0738085,19.428431 25.6465666,19.3362322 25.0905743,19.3362322 C24.4479929,19.3362322 23.9922683,19.5050782 23.7233868,19.8427752 C23.5729954,20.0293972 23.4750146,20.3071044 23.4294415,20.6759051 L22.281004,20.6759051 C22.3037905,19.7961155 22.5965936,19.1840489 23.1594219,18.8396868 C23.7222503,18.4953248 24.3750758,18.3231463 25.117918,18.3231463 C25.9792505,18.3231463 26.6787877,18.4831056 27.2165508,18.8030291 C27.7497566,19.1229526 28.0163555,19.6206039 28.0163555,20.2959979 L28.0163555,24.408327 C28.0163555,24.5327416 28.0425597,24.6327162 28.0949688,24.7082537 C28.1473779,24.7837912 28.2578911,24.8215594 28.4265118,24.8215594 C28.4811995,24.8215594 28.5427224,24.8182269 28.6110821,24.8115618 C28.6794418,24.8048968 28.7523577,24.7948993 28.8298321,24.7815691 L28.8298321,25.6680193 C28.6384249,25.7213399 28.492593,25.7546648 28.3923321,25.7679949 C28.2920712,25.7813251 28.1553538,25.78799 27.9821758,25.78799 C27.5583456,25.78799 27.2507315,25.6413607 27.0593243,25.3480975 C26.9590634,25.1925791 26.888426,24.972635 26.8474102,24.6882586 C26.5967579,25.0081821 26.2367355,25.2858893 25.7673321,25.5213885 C25.2979287,25.7568877 24.7806813,25.8746356 24.2155743,25.8746356 C23.5365344,25.8746356 22.9816897,25.6735756 22.5510235,25.2714495 C22.1203573,24.8693235 21.9050274,24.3661181 21.9050274,23.7618182 C21.9050274,23.0997543 22.1169393,22.5865514 22.5407696,22.2221941 C22.9645998,21.8578369 23.5205839,21.6334495 24.2087383,21.5490252 L26.1706524,21.3090838 Z M32.6169415,18.3698016 C33.1911631,18.3698016 33.6924602,18.5075443 34.1208477,18.783034 C34.3532707,18.9385523 34.5902475,19.1651614 34.8317852,19.462868 L34.8317852,18.5630877 L35.9665508,18.5630877 L35.9665508,25.0548358 C35.9665508,25.9612856 35.8298335,26.6766593 35.5563946,27.2009783 C35.0459754,28.1696355 34.0821178,28.6539568 32.664793,28.6539568 C31.8763776,28.6539568 31.2132983,28.4817784 30.6755352,28.1374163 C30.1377721,27.7930542 29.8369939,27.2543023 29.7731915,26.5211443 L31.024168,26.5211443 C31.0834131,26.8410678 31.2019015,27.0876718 31.3796368,27.2609637 C31.657633,27.5275666 32.0951286,27.660866 32.6921368,27.660866 C33.6355009,27.660866 34.2530077,27.336504 34.5446758,26.6877703 C34.7178538,26.3056395 34.7976056,25.6235907 34.7839336,24.6416033 C34.5378387,25.0059606 34.2416177,25.2770028 33.8952618,25.4547381 C33.5489059,25.6324734 33.0909026,25.7213397 32.5212383,25.7213397 C31.7282656,25.7213397 31.0344249,25.446965 30.4396954,24.8982073 C29.8449658,24.3494497 29.5476055,23.4419026 29.5476055,22.1755389 C29.5476055,20.9802692 29.8472445,20.0471731 30.4465313,19.3762225 C31.0458182,18.7052718 31.769281,18.3698016 32.6169415,18.3698016 Z M34.8317852,22.0355731 C34.8317852,21.1513401 34.6449381,20.4959512 34.2712383,20.0693865 C33.8975386,19.6428219 33.4213063,19.4295428 32.8425274,19.4295428 C31.9766377,19.4295428 31.3841957,19.8249978 31.0651836,20.6159197 C30.896563,21.038041 30.812254,21.5912337 30.812254,22.2755145 C30.812254,23.0797665 30.9797328,23.6918332 31.3146954,24.1117327 C31.649658,24.5316323 32.099686,24.7415789 32.664793,24.7415789 C33.548912,24.7415789 34.1709761,24.3527889 34.531004,23.5751971 C34.7315258,23.1353023 34.8317852,22.6220994 34.8317852,22.0355731 Z M37.8532696,18.4964373 L39.0222149,18.4964373 L39.0222149,19.7294695 C39.1179185,19.4895269 39.3526167,19.197379 39.7263165,18.8530169 C40.1000162,18.5086548 40.530676,18.3364764 41.0183086,18.3364764 C41.0410952,18.3364764 41.0798318,18.338698 41.1345196,18.3431414 C41.1892074,18.3475848 41.2826309,18.3564714 41.414793,18.3698016 L41.414793,19.636159 C41.341876,19.6228288 41.2746566,19.6139422 41.2131329,19.6094988 C41.1516091,19.6050555 41.0843897,19.6028338 41.0114727,19.6028338 C40.3916779,19.6028338 39.9154457,19.7972288 39.5827618,20.1860247 C39.2500778,20.5748206 39.0837383,21.0224846 39.0837383,21.5290301 L39.0837383,25.6346941 L37.8532696,25.6346941 L37.8532696,18.4964373 Z M43.4245586,23.735158 C43.4245586,24.0817418 43.5544402,24.3550056 43.8142071,24.5549578 C44.073974,24.75491 44.3815881,24.8548846 44.7370586,24.8548846 C45.1700035,24.8548846 45.5892702,24.7571317 45.9948711,24.5616229 C46.6784683,24.237256 47.0202618,23.7062799 47.0202618,22.9686785 L47.0202618,22.0022479 C46.8698704,22.0955589 46.6761874,22.1733169 46.4392071,22.2355242 C46.2022267,22.2977316 45.9698072,22.3421647 45.7419415,22.368825 L44.9968243,22.4621356 C44.5502075,22.5198995 44.2152499,22.6109875 43.9919415,22.7354022 C43.6136844,22.9442411 43.4245586,23.2774897 43.4245586,23.735158 Z M46.4050274,21.3090838 C46.6875809,21.2735367 46.8767066,21.1580106 46.9724102,20.9625018 C47.027098,20.8558606 47.0544415,20.7025662 47.0544415,20.5026141 C47.0544415,20.093823 46.9051917,19.7972317 46.6066876,19.6128314 C46.3081835,19.428431 45.8809416,19.3362322 45.3249493,19.3362322 C44.6823679,19.3362322 44.2266433,19.5050782 43.9577618,19.8427752 C43.8073704,20.0293972 43.7093896,20.3071044 43.6638165,20.6759051 L42.515379,20.6759051 C42.5381655,19.7961155 42.8309686,19.1840489 43.3937969,18.8396868 C43.9566253,18.4953248 44.6094508,18.3231463 45.352293,18.3231463 C46.2136255,18.3231463 46.9131627,18.4831056 47.4509258,18.8030291 C47.9841316,19.1229526 48.2507305,19.6206039 48.2507305,20.2959979 L48.2507305,24.408327 C48.2507305,24.5327416 48.2769347,24.6327162 48.3293438,24.7082537 C48.3817529,24.7837912 48.4922661,24.8215594 48.6608868,24.8215594 C48.7155745,24.8215594 48.7770974,24.8182269 48.8454571,24.8115618 C48.9138168,24.8048968 48.9867327,24.7948993 49.0642071,24.7815691 L49.0642071,25.6680193 C48.8727999,25.7213399 48.726968,25.7546648 48.6267071,25.7679949 C48.5264462,25.7813251 48.3897288,25.78799 48.2165508,25.78799 C47.7927206,25.78799 47.4851065,25.6413607 47.2936993,25.3480975 C47.1934384,25.1925791 47.122801,24.972635 47.0817852,24.6882586 C46.8311329,25.0081821 46.4711105,25.2858893 46.0017071,25.5213885 C45.5323037,25.7568877 45.0150563,25.8746356 44.4499493,25.8746356 C43.7709094,25.8746356 43.2160647,25.6735756 42.7853985,25.2714495 C42.3547323,24.8693235 42.1394024,24.3661181 42.1394024,23.7618182 C42.1394024,23.0997543 42.3513143,22.5865514 42.7751446,22.2221941 C43.1989748,21.8578369 43.7549589,21.6334495 44.4431133,21.5490252 L46.4050274,21.3090838 Z M53.3571758,24.8282244 C53.9313975,24.8282244 54.408769,24.5938396 54.7893047,24.1250628 C55.1698405,23.656286 55.3601055,22.9553531 55.3601055,22.022243 C55.3601055,21.4534901 55.2757965,20.9647255 55.1071758,20.5559344 C54.7881638,19.7694558 54.2048363,19.3762225 53.3571758,19.3762225 C52.504958,19.3762225 51.9216305,19.7916724 51.6071758,20.6225848 C51.4385552,21.0669229 51.3542461,21.6312239 51.3542461,22.3155047 C51.3542461,22.866484 51.4385552,23.3352537 51.6071758,23.7218279 C51.9261878,24.4594293 52.5095153,24.8282244 53.3571758,24.8282244 Z M50.171629,18.5297625 L51.367918,18.5297625 L51.367918,19.4761981 C51.614013,19.1518312 51.8828905,18.9007839 52.1745586,18.7230486 C52.5892743,18.4564457 53.0768996,18.3231463 53.6374493,18.3231463 C54.4668805,18.3231463 55.170975,18.6330675 55.749754,19.2529192 C56.3285329,19.872771 56.617918,20.7581015 56.617918,21.9089373 C56.617918,23.4641209 56.20093,24.5749496 55.3669415,25.2414568 C54.838293,25.6635781 54.2230648,25.8746356 53.5212383,25.8746356 C52.9698033,25.8746356 52.5072428,25.7568877 52.133543,25.5213885 C51.9147919,25.388087 51.6709793,25.1592563 51.4020977,24.8348895 L51.4020977,28.4806658 L50.171629,28.4806658 L50.171629,18.5297625 Z M58.0534649,15.8104266 L59.2839336,15.8104266 L59.2839336,19.462868 C59.5756018,19.1029541 59.8376434,18.8496851 60.0700665,18.7030535 C60.4665528,18.4497808 60.961014,18.3231463 61.5534649,18.3231463 C62.6153192,18.3231463 63.3353641,18.6852765 63.7136211,19.4095477 C63.9187003,19.8050086 64.0212383,20.353758 64.0212383,21.0558123 L64.0212383,25.6346941 L62.7565899,25.6346941 L62.7565899,21.1357928 C62.7565899,20.6114738 62.6882312,20.227127 62.5515118,19.982741 C62.3282034,19.5917234 61.9089367,19.3962176 61.2936993,19.3962176 C60.7832801,19.3962176 60.3207196,19.5672852 59.906004,19.9094256 C59.4912883,20.251566 59.2839336,20.8980683 59.2839336,21.848952 L59.2839336,25.6346941 L58.0534649,25.6346941 L58.0534649,15.8104266 Z" id="Paragraph" fill="#333333"></path>
                        <g id="Group" transform="translate(102.309063, 11.984694)">
                            <g id="dropdown-arrow" transform="translate(3.000000, 6.825000)">
                                <mask id="mask-28" fill="white">
                                    <use xlink:href="#path-27"></use>
                                </mask>
                                <use id="Mask" fill="#333333" xlink:href="#path-27"></use>
                                <g id="Group" mask="url(#mask-28)">
                                    <g transform="translate(-5.000000, -6.825000)" id="color">
                                        <rect fill="#333333" x="0" y="0" width="20" height="19.5"></rect>
                                    </g>
                                </g>
                            </g>
                        </g>
                        <line x1="122.806424" y1="0.972357151" x2="123.487068" y2="39.9664173" id="Line" stroke="#C4C4C4" fill="#C4C4C4" fill-rule="nonzero" transform="translate(123.146746, 20.469387) rotate(1.000000) translate(-123.146746, -20.469387) "></line>
                    </g>
                </g>
            </g>
        </g>
    </g>
</svg>