<?xml version="1.0" encoding="UTF-8"?>
<svg width="17px" height="17px" viewBox="0 0 17 17" version="1.1" xmlns="http://www.w3.org/2000/svg" xmlns:xlink="http://www.w3.org/1999/xlink">
    <title>user</title>
    <g id="Page-1" stroke="none" stroke-width="1" fill="none" fill-rule="evenodd" opacity="0.699999988">
        <g id="1" transform="translate(-21.000000, -185.000000)" fill="#222222" fill-rule="nonzero">
            <g id="side-bar" transform="translate(0.000000, 72.000000)">
                <g id="msg-copy-2" transform="translate(0.000000, 97.000000)">
                    <g id="user" transform="translate(21.000000, 16.000000)">
                        <path d="M13.9846392,10.5913594 C13.0923832,9.69913542 12.0303673,9.03862346 10.8716474,8.63878349 C12.1126713,7.78403154 12.9279992,6.35353562 12.9279992,4.73599972 C12.9279992,2.12457587 10.8034234,0 8.19199951,0 C5.58057567,0 3.45599979,2.12457587 3.45599979,4.73599972 C3.45599979,6.35353562 4.27132775,7.78403154 5.51238367,8.63878349 C4.35366374,9.03862346 3.2916478,9.69913542 2.39939186,10.5913594 C0.852127949,12.1386553 0,14.1958392 0,16.383999 L1.27999992,16.383999 C1.27999992,12.5727033 4.38070374,9.47199944 8.19199951,9.47199944 C12.0032953,9.47199944 15.1039991,12.5727033 15.1039991,16.383999 L16.383999,16.383999 C16.383999,14.1958392 15.5318711,12.1386553 13.9846392,10.5913594 Z M8.19199951,8.19199951 C6.28636763,8.19199951 4.73599972,6.6416636 4.73599972,4.73599972 C4.73599972,2.83033583 6.28636763,1.27999992 8.19199951,1.27999992 C10.0976314,1.27999992 11.6479993,2.83033583 11.6479993,4.73599972 C11.6479993,6.6416636 10.0976314,8.19199951 8.19199951,8.19199951 Z" id="Shape"></path>
                    </g>
                </g>
            </g>
        </g>
    </g>
</svg>